#N canvas 1786 322 727 886 12;
#X obj 7 106 netreceive -u -b;
#X obj 7 141 oscparse;
#X obj 7 176 list trim;
#X text 3 0 Receive OSC messages;
#X msg 7 71 listen 8000;
#X obj 7 838 dac~ 9;
#X obj 7 756 sig~;
#X obj 60 293 s es9_1;
#X obj 7 628 r es9_1;
#X obj 74 756 sig~;
#X obj 74 628 r es9_2;
#X obj 74 838 dac~ 10;
#X obj 140 756 sig~;
#X obj 140 628 r es9_3;
#X obj 140 838 dac~ 11;
#X obj 206 756 sig~;
#X obj 206 628 r es9_4;
#X obj 206 838 dac~ 12;
#X obj 271 756 sig~;
#X obj 338 756 sig~;
#X obj 402 756 sig~;
#X obj 467 756 sig~;
#X obj 271 628 r es9_5;
#X obj 337 628 r es9_6;
#X obj 402 628 r es9_7;
#X obj 467 628 r es9_8;
#X obj 272 838 dac~ 13;
#X obj 337 838 dac~ 14;
#X obj 401 838 dac~ 15;
#X obj 468 838 dac~ 16;
#X obj 60 372 s es9_2;
#X obj 58 536 s es9_3;
#X obj 59 456 s es9_4;
#X obj 548 629 r offset;
#X obj 387 366 vsl 15 128 -1 1 0 0 empty empty empty 0 -9 0 10 -262144
-1 -1 10800 1;
#X floatatom 387 508 5 0 0 0 - - -;
#X obj 387 537 s offset;
#X obj 7 728 +;
#X obj 74 728 +;
#X obj 140 728 +;
#X obj 206 728 +;
#X obj 271 728 +;
#X obj 337 728 +;
#X obj 402 728 +;
#X obj 467 728 +;
#X obj 7 213 route EEGsynth;
#X text 5 602 Send to DAC (ES-9);
#X obj 60 259 route betalat;
#X obj 60 337 route alpha;
#X obj 58 501 route beta_left;
#X obj 59 421 route beta_right;
#X msg 387 334 0;
#X obj 387 304 loadbang;
#X text 1 868 ES-9 analog outputs are at 9-16 (1-2 for main out \,
3-4 for headphones), f 83;
#X obj 7 34 loadbang;
#X floatatom 121 293 5 0 0 0 - - -;
#X floatatom 120 372 5 0 0 0 - - -;
#X floatatom 120 536 5 0 0 0 - - -;
#X floatatom 119 456 5 0 0 0 - - -;
#X obj 171 214 route atau;
#X floatatom 287 293 5 0 0 0 - - -;
#X obj 224 260 route emgLa;
#X floatatom 286 372 5 0 0 0 - - -;
#X floatatom 287 456 5 0 0 0 - - -;
#X floatatom 285 536 5 0 0 0 - - -;
#X obj 225 421 route emgRa;
#X obj 223 501 route emgRb;
#X obj 224 339 route emgLb;
#X obj 224 293 s es9_5;
#X obj 225 456 s es9_6;
#X obj 224 372 s es9_7;
#X obj 223 536 s es9_8;
#X obj -47 627 osc~ 1;
#X connect 0 0 1 0;
#X connect 1 0 2 0;
#X connect 2 0 45 0;
#X connect 2 0 59 0;
#X connect 4 0 0 0;
#X connect 8 0 37 0;
#X connect 9 0 11 0;
#X connect 10 0 38 0;
#X connect 12 0 14 0;
#X connect 13 0 39 0;
#X connect 15 0 17 0;
#X connect 16 0 40 0;
#X connect 18 0 26 0;
#X connect 19 0 27 0;
#X connect 20 0 28 0;
#X connect 21 0 29 0;
#X connect 22 0 41 0;
#X connect 23 0 42 0;
#X connect 24 0 43 0;
#X connect 25 0 44 0;
#X connect 33 0 37 1;
#X connect 33 0 38 1;
#X connect 33 0 39 1;
#X connect 33 0 40 1;
#X connect 33 0 41 1;
#X connect 33 0 42 1;
#X connect 33 0 43 1;
#X connect 33 0 44 1;
#X connect 34 0 35 0;
#X connect 35 0 36 0;
#X connect 37 0 6 0;
#X connect 38 0 9 0;
#X connect 39 0 12 0;
#X connect 40 0 15 0;
#X connect 41 0 18 0;
#X connect 42 0 19 0;
#X connect 43 0 20 0;
#X connect 44 0 21 0;
#X connect 45 0 47 0;
#X connect 45 0 48 0;
#X connect 45 0 49 0;
#X connect 45 0 50 0;
#X connect 47 0 7 0;
#X connect 47 0 55 0;
#X connect 48 0 30 0;
#X connect 48 0 56 0;
#X connect 49 0 31 0;
#X connect 49 0 57 0;
#X connect 50 0 32 0;
#X connect 50 0 58 0;
#X connect 51 0 34 0;
#X connect 52 0 51 0;
#X connect 54 0 4 0;
#X connect 59 0 61 0;
#X connect 59 0 65 0;
#X connect 59 0 66 0;
#X connect 59 0 67 0;
#X connect 61 0 60 0;
#X connect 61 0 68 0;
#X connect 65 0 63 0;
#X connect 65 0 69 0;
#X connect 66 0 64 0;
#X connect 66 0 71 0;
#X connect 67 0 62 0;
#X connect 67 0 70 0;
#X connect 72 0 5 0;
