#N canvas 1117 195 1193 984 12;
#X obj 489 149 netreceive -u -b;
#X obj 489 172 oscparse;
#X obj 489 195 list trim;
#X obj 489 106 bng 15 250 50 0 empty empty empty 17 7 0 10 -262144
-1 -1;
#X text 36 130 ES-9 analog outputs are at 9-16 (1-2 for main out \,
3-4 for headphones);
#X text 463 68 Receive OSC messages;
#X msg 489 126 listen 8000;
#X obj 386 816 dac~ 9;
#X obj 386 791 sig~;
#X obj 314 467 s es9_1;
#X obj 386 741 r es9_1;
#X obj 453 791 sig~;
#X obj 453 741 r es9_2;
#X obj 453 816 dac~ 10;
#X obj 519 791 sig~;
#X obj 519 741 r es9_3;
#X obj 519 816 dac~ 11;
#X obj 585 791 sig~;
#X obj 585 741 r es9_4;
#X obj 585 816 dac~ 12;
#X obj 650 791 sig~;
#X obj 716 791 sig~;
#X obj 781 791 sig~;
#X obj 846 791 sig~;
#X obj 650 741 r es9_5;
#X obj 716 741 r es9_6;
#X obj 781 741 r es9_7;
#X obj 846 741 r es9_8;
#X obj 650 816 dac~ 13;
#X obj 716 816 dac~ 14;
#X obj 781 816 dac~ 15;
#X obj 846 816 dac~ 16;
#X obj 503 439 print channel1 alpha;
#X obj 476 466 s es9_2;
#X obj 653 465 s es9_3;
#X obj 805 466 s es9_4;
#X obj 956 468 s es9_5;
#X obj 1115 467 s es9_6;
#X obj 1277 473 s es9_7;
#X obj 1411 481 s es9_8;
#X obj 336 410 route channel1_delta;
#X obj 336 439 print channel1 delta;
#X obj 503 410 route channel1_alpha;
#X obj 666 409 route channel1_beta;
#X obj 666 438 print channel1 beta;
#X obj 811 409 route channel1_gamma;
#X obj 812 438 print channel1 gamma;
#X obj 971 413 route channel2_delta;
#X obj 971 442 print channel2 delta;
#X obj 1131 413 route channel2_alpha;
#X obj 1131 442 print channel2 alpha;
#X obj 1293 416 route channel2_beta;
#X obj 1293 445 print channel2 beta;
#X obj 1449 421 route channel2_gamma;
#X obj 1449 450 print channel2 gamma;
#X obj 619 629 r offset;
#X obj 240 598 vsl 15 128 -1 1 0 0 empty empty empty 0 -9 0 10 -262144
-1 -1 0 1;
#X floatatom 239 781 5 0 0 0 - - -;
#X obj 238 817 s offset;
#X obj 386 766 +;
#X obj 453 766 +;
#X obj 519 766 +;
#X obj 585 766 +;
#X obj 650 766 +;
#X obj 716 766 +;
#X obj 781 766 +;
#X obj 846 766 +;
#X obj 489 218 route EEGsynth;
#X text 391 567 Send to DAC (ES-9);
#X connect 0 0 1 0;
#X connect 1 0 2 0;
#X connect 2 0 67 0;
#X connect 3 0 6 0;
#X connect 6 0 0 0;
#X connect 8 0 7 0;
#X connect 10 0 59 1;
#X connect 11 0 13 0;
#X connect 12 0 60 1;
#X connect 14 0 16 0;
#X connect 15 0 61 1;
#X connect 17 0 19 0;
#X connect 18 0 62 1;
#X connect 20 0 28 0;
#X connect 21 0 29 0;
#X connect 22 0 30 0;
#X connect 23 0 31 0;
#X connect 24 0 63 1;
#X connect 25 0 64 1;
#X connect 26 0 65 1;
#X connect 27 0 66 1;
#X connect 40 0 9 0;
#X connect 40 0 41 0;
#X connect 42 0 32 0;
#X connect 42 0 33 0;
#X connect 43 0 34 0;
#X connect 43 0 44 0;
#X connect 45 0 35 0;
#X connect 45 0 46 0;
#X connect 47 0 36 0;
#X connect 47 0 48 0;
#X connect 49 0 37 0;
#X connect 49 0 50 0;
#X connect 51 0 38 0;
#X connect 51 0 52 0;
#X connect 53 0 39 0;
#X connect 53 0 54 0;
#X connect 55 0 59 0;
#X connect 55 0 63 0;
#X connect 55 0 61 0;
#X connect 55 0 62 0;
#X connect 55 0 64 0;
#X connect 55 0 65 0;
#X connect 55 0 66 0;
#X connect 55 0 60 0;
#X connect 56 0 57 0;
#X connect 57 0 58 0;
#X connect 59 0 8 0;
#X connect 60 0 11 0;
#X connect 61 0 14 0;
#X connect 62 0 17 0;
#X connect 63 0 20 0;
#X connect 64 0 21 0;
#X connect 65 0 22 0;
#X connect 66 0 23 0;
#X connect 67 0 40 0;
#X connect 67 0 42 0;
#X connect 67 0 43 0;
#X connect 67 0 45 0;
#X connect 67 0 47 0;
#X connect 67 0 49 0;
#X connect 67 0 51 0;
#X connect 67 0 53 0;
